<?xml version="1.0" encoding="UTF-8"?><!DOCTYPE svg PUBLIC "-//W3C//DTD SVG 1.1//EN" "http://www.w3.org/Graphics/SVG/1.1/DTD/svg11.dtd"><svg xmlns="http://www.w3.org/2000/svg" xmlns:xlink="http://www.w3.org/1999/xlink" version="1.1" width="24" height="24" viewBox="0 0 48 48"><path d="M24 21.17l-9.41-9.41 6.58-6.58c1.56-1.56 4.1-1.56 5.66 0l6.58 6.58L24 21.17zm-9.41 15.07l6.58 6.58c1.56 1.56 4.1 1.56 5.66 0l6.58-6.58L24 26.83l-9.41 9.41zm-2.83-21.65l-6.58 6.58c-1.56 1.56-1.56 4.1 0 5.66l6.58 6.58L21.17 24l-9.41-9.41zm31.07 6.58l-6.58-6.58L26.83 24l9.41 9.41 6.58-6.58c1.57-1.56 1.57-4.1.01-5.66z"/></svg>