<?xml version="1.0" encoding="UTF-8"?>
<svg version="1.1" viewBox="0 0 48 48" 
  xmlns="http://www.w3.org/2000/svg">
  <g fill="none" fill-rule="evenodd">
    <g transform="translate(0 5)">
      <path d="m47.556 9.0459c-2.5114-10.811-17.982-12.616-23.343-1.6713-5.3608-10.945-21.173-8.2001-23.684 2.6112-4.0871 17.597 16.709 18.904 21.297 28.604 4.5881-9.7007 29.817-11.946 25.73-29.544z" fill="#D40000"/>
      <path d="m34.524 13.688l-6.3387 0.19752c-0.69547 0-1.2794-0.1428-1.752-0.42892-0.47154-0.28561-0.70717-0.62696-0.70717-1.0234 0-0.39607 0.22364-0.73742 0.67105-1.0235 0.44713-0.28561 1.0184-0.42905 1.7137-0.42905h0.074401l6.2644 0.19752-0.22291-5.5484c0-0.61584 0.16123-1.1323 0.48411-1.5501 0.32274-0.41882 0.7076-0.62862 1.1552-0.62862 0.44698 0 0.83242 0.19855 1.1552 0.59461 0.3239 0.39658 0.48642 0.90247 0.48642 1.5182v0.065969l-0.22522 5.6144 7.1585 0.19739c0.44698 0 0.82029 0.099209 1.1192 0.29724 0.29833 0.19855 0.44799 0.43007 0.44799 0.69446-0.099249 0.61571-0.62164 0.92369-1.5672 0.92369l-7.2328 0.26541-0.22291 6.4062c0 0.39658-0.11196 0.72732-0.3356 0.9917-0.22392 0.26336-0.48512 0.39492-0.78359 0.39492-0.69547-0.087575-1.0425-0.54999-1.0425-1.3866l-0.29963-6.3405z" fill="#fff"/>
    </g>
  </g>
</svg>