<?xml version="1.0" standalone="no"?>
<!DOCTYPE svg PUBLIC "-//W3C//DTD SVG 20010904//EN"
 "http://www.w3.org/TR/2001/REC-SVG-20010904/DTD/svg10.dtd">
<svg version="1.0" xmlns="http://www.w3.org/2000/svg"
 width="512.000000pt" height="512.000000pt" viewBox="0 0 512.000000 512.000000"
 preserveAspectRatio="xMidYMid meet">
<metadata>
Created by potrace 1.11, written by Peter Selinger 2001-2013
</metadata>
<g transform="translate(0.000000,512.000000) scale(0.100000,-0.100000)"
fill="#000000" stroke="none">
<path d="M3527 4754 c-364 -56 -675 -231 -904 -508 l-40 -48 -119 120 c-65 65
-154 142 -196 171 -159 106 -339 181 -525 218 -133 27 -424 24 -559 -5 -151
-33 -246 -66 -389 -137 -257 -127 -458 -315 -599 -560 -131 -229 -206 -575
-193 -895 10 -233 53 -405 153 -605 79 -159 169 -281 324 -435 196 -196 360
-319 775 -580 407 -256 558 -364 703 -505 135 -129 173 -185 284 -414 54 -112
101 -201 104 -198 3 3 44 86 91 184 100 210 140 269 260 384 166 160 297 247
856 565 426 244 617 362 779 482 557 412 806 857 785 1402 -16 411 -145 729
-396 981 -303 302 -764 450 -1194 383z m304 -375 c64 -22 127 -98 144 -176 3
-18 1 -164 -6 -323 -6 -160 -9 -293 -7 -295 3 -3 171 -10 374 -16 203 -6 387
-15 409 -21 49 -12 115 -76 115 -110 0 -14 -10 -40 -23 -59 -40 -60 -73 -65
-504 -80 -211 -7 -383 -15 -383 -18 -1 -3 -7 -160 -14 -347 -12 -327 -14 -343
-36 -379 -45 -73 -121 -95 -187 -53 -60 36 -64 58 -80 428 -9 184 -18 338 -22
341 -3 4 -121 2 -261 -3 -441 -16 -523 -7 -597 64 -83 81 -59 179 58 239 70
35 120 38 462 27 180 -6 329 -9 330 -7 2 2 -2 130 -9 284 -7 171 -8 299 -3
329 15 82 66 147 136 171 47 17 61 18 104 4z"/>
</g>
</svg>
